Coordinates
version=1
nRows=9
nColumns=63
inDegrees=yes

Units are S.I. units (second, meters, Newtons, ...)
If the header above contains a line with 'inDegrees', this indicates whether rotational values are in degrees (yes) or radians (no).

endheader
time	pelvis_tilt	pelvis_list	pelvis_rotation	pelvis_tx	pelvis_ty	pelvis_tz	hip_flexion_r	hip_adduction_r	hip_rotation_r	knee_angle_r	knee_angle_r_beta	ankle_angle_r	subtalar_angle_r	mtp_angle_r	hip_flexion_l	hip_adduction_l	hip_rotation_l	knee_angle_l	knee_angle_l_beta	ankle_angle_l	subtalar_angle_l	mtp_angle_l	L5_S1_Flex_Ext	L5_S1_Lat_Bending	L5_S1_axial_rotation	L4_L5_Flex_Ext	L4_L5_Lat_Bending	L4_L5_axial_rotation	L3_L4_Flex_Ext	L3_L4_Lat_Bending	L3_L4_axial_rotation	L2_L3_Flex_Ext	L2_L3_Lat_Bending	L2_L3_axial_rotation	L1_L2_Flex_Ext	L1_L2_Lat_Bending	L1_L2_axial_rotation	L1_T12_Flex_Ext	L1_T12_Lat_Bending	L1_T12_axial_rotation	Abs_r3	Abs_r2	Abs_r1	Abs_t1	Abs_t2	neck_flexion	neck_bending	neck_rotation	arm_flex_r	arm_add_r	arm_rot_r	elbow_flex_r	pro_sup_r	wrist_flex_r	wrist_dev_r	arm_flex_l	arm_add_l	arm_rot_l	elbow_flex_l	pro_sup_l	wrist_flex_l	wrist_dev_l
      2.20000000	      4.15520511	     -5.38177448	     86.85479569	      0.23408591	      0.79600952	      0.69677929	      5.05541185	      3.95778861	    -15.49044132	     14.82441882	      0.25873492	     32.06427761	     18.18257288	      0.00000000	     -1.05562283	     -4.62374570	      1.56719031	      5.07378196	      0.08855420	     23.96792636	     -9.43580362	      0.00000000	     -0.15234781	      0.31674841	      1.26356233	     -0.28292511	      0.42127538	      1.34253497	     -0.25029221	      0.77014208	      1.34253497	     -0.17411831	      0.77014208	      1.10561704	     -0.14147017	      0.64591336	      1.02664439	     -0.08705154	      0.49064329	      0.94767174	     -1.08820514	      3.58312136	      7.02755459	      0.00000000	      0.00000000	      8.71181090	    -14.99700310	     -1.81477013	    -17.94762688	    -19.24949433	      8.43094428	     55.39031973	     87.41216281	      6.51210643	     25.52215462	     10.91136551	    -15.44900977	     86.59571238	     23.88798616	     81.11853306	     -8.75678860	     -3.06489818
      2.21666667	      4.08537671	     -5.25346065	     86.72196555	      0.23426800	      0.79617746	      0.69551466	      4.75935632	      3.93239497	    -15.30268467	     14.60046558	      0.25482620	     32.03621757	     18.16956885	      0.00000000	     -1.14680299	     -4.52051704	      1.47606389	      5.33962738	      0.09319408	     24.11595921	     -9.64002828	      0.00000000	     -0.15429552	      0.31307536	      1.24815455	     -0.28654220	      0.41639023	      1.32616421	     -0.25349210	      0.76121143	      1.32616421	     -0.17634434	      0.76121143	      1.09213523	     -0.14327882	      0.63842327	      1.01412557	     -0.08816446	      0.48495373	      0.93611591	     -1.10211744	      3.54157107	      6.94186116	      0.00000000	      0.00000000	      8.60869020	    -15.09309377	     -1.46175654	    -17.94547066	    -19.31139382	      8.43983233	     54.53604890	     87.42712885	      7.09937705	     26.02540182	     10.78054221	    -15.44212042	     88.36709366	     23.27377575	     81.78915866	     -7.83341273	     -1.93133859
      2.23333333	      4.06144980	     -5.15900645	     86.78905813	      0.23433107	      0.79624232	      0.69449779	      4.48959222	      3.96642469	    -15.26340859	     14.29455246	      0.24948701	     32.09483121	     18.20236983	      0.00000000	     -1.12075932	     -4.50200755	      1.21427411	      5.69001222	      0.09930945	     24.34485441	     -9.36297048	      0.00000000	     -0.15427231	      0.31228657	      1.22579533	     -0.28649911	      0.41534113	      1.30240754	     -0.25345398	      0.75929356	      1.30240754	     -0.17631783	      0.75929356	      1.07257091	     -0.14325727	      0.63681477	      0.99595870	     -0.08815120	      0.48373189	      0.91934650	     -1.10195171	      3.53264809	      6.81750588	      0.00000000	      0.00000000	      8.50931946	    -15.24267837	     -1.38531184	    -17.92904933	    -19.29053311	      8.28103477	     53.70164075	     87.68317776	      8.28918177	     26.66246378	     11.30096637	    -15.21839267	     93.77168208	     22.57092155	     82.18674321	     -8.02806340	     -0.23240639
      2.25000000	      4.15399487	     -5.10900200	     86.95637395	      0.23409380	      0.79637995	      0.69405461	      4.33951420	      4.11981372	    -15.19093571	     14.02360239	      0.24475803	     32.14497571	     18.18852498	      0.00000000	     -0.94192266	     -4.65824253	      0.14465599	      6.17597216	      0.10779105	     24.95976406	     -7.74861092	      0.00000000	     -0.15757390	      0.32708468	      1.14243747	     -0.29263050	      0.43502262	      1.21383982	     -0.25887817	      0.79527369	      1.21383982	     -0.18009121	      0.79527369	      0.99963279	     -0.14632313	      0.66699108	      0.92823045	     -0.09003773	      0.50665417	      0.85682811	     -1.12553464	      3.70004730	      6.35389450	      0.00000000	      0.00000000	      8.57713753	    -15.28547840	     -0.87220581	    -17.31317433	    -19.89140258	      9.69447512	     52.84244057	     88.00238156	      9.35274795	     27.60169902	     12.37987454	    -14.27700650	    105.02087688	     20.99273276	     79.90310766	    -10.00684277	      0.08044808
      2.26666667	      4.13686519	     -5.32169783	     87.15386286	      0.23402245	      0.79635223	      0.69416267	      4.52174406	      4.19632746	    -14.99388390	     13.71875036	      0.23943736	     32.15891874	     18.15001131	      0.00000000	     -0.42223251	     -4.67873803	      0.14490962	      6.69005953	      0.11676357	     25.07803439	     -7.64392342	      0.00000000	     -0.12975692	      0.32619258	      0.98699909	     -0.24097158	      0.43383613	      1.04868653	     -0.21317765	      0.79310464	      1.04868653	     -0.14829919	      0.79310464	      0.86362420	     -0.12049228	      0.66517191	      0.80193676	     -0.07414310	      0.50527231	      0.74024932	     -0.92684071	      3.68995572	      5.48939284	      0.00000000	      0.00000000	      8.83858188	    -15.42800108	     -0.06547498	    -16.02733691	    -20.47971824	     12.00055355	     51.54043728	     88.45089028	     10.49814403	     29.05377165	     12.16987766	    -13.57661068	    109.37368015	     19.41637480	     83.70763077	     -9.69383620	      1.52749987
      2.28333333	      4.64014068	     -5.09000076	     88.27381773	      0.23227730	      0.79646107	      0.69411879	      4.18685894	      4.68976523	    -16.00910651	     13.39291585	      0.23375048	     32.33622603	     18.30982830	      0.00000000	     -0.29832127	     -5.25833100	      0.15040321	      7.13189156	      0.12447499	     25.76978230	     -6.14673765	      0.00000000	     -0.17046477	      0.38750756	      0.75600141	     -0.31657012	      0.51538506	      0.80325149	     -0.28005656	      0.94218588	      0.80325149	     -0.19482418	      0.94218588	      0.66150123	     -0.15829358	      0.79020542	      0.61425114	     -0.09740357	      0.60024921	      0.56700105	     -1.21761277	      4.38356302	      4.20465302	      0.00000000	      0.00000000	      9.04328439	    -15.38556892	      0.12064580	    -14.99189990	    -21.69221792	     14.65596352	     50.72459827	     88.59740695	     12.66030358	     29.46324547	     13.12955930	    -12.11925862	    122.01906246	     18.31329943	     85.12864270	    -12.60938055	      3.12827607
      2.30000000	      4.94444080	     -5.49971939	     88.38526419	      0.23133399	      0.79650866	      0.69415593	      4.69853721	      5.00275634	    -15.80213612	     13.35012113	      0.23300357	     32.38607343	     18.30351879	      0.00000000	      0.39885438	     -5.67171150	     -1.66411366	      7.67430576	      0.13394190	     26.52697255	     -3.56172482	      0.00000000	     -0.12543332	      0.45661975	      0.58611593	     -0.23294221	      0.60730426	      0.62274818	     -0.20607440	      1.11022526	      0.62274818	     -0.14335774	      1.11022526	      0.51285144	     -0.11647738	      0.93113899	      0.47621919	     -0.07167260	      0.70730399	      0.43958695	     -0.89595764	      5.16537391	      3.25980098	      0.00000000	      0.00000000	      9.59399618	    -16.03902678	      2.02853206	    -13.65199652	    -22.93642091	     17.68959722	     50.09144126	     88.77799094	     13.89051091	     30.97182065	     10.09557406	     -6.27693100	    195.05301482	      3.67870667	     24.06100107	     -6.44145224	     -6.15301003
      2.31666667	      5.01915957	     -5.64312045	     88.51404690	      0.23115815	      0.79636021	      0.69457361	      5.04830491	      5.07149644	    -15.79682603	     13.53014140	      0.23614552	     32.66187725	     18.36168662	      0.00000000	      0.71968871	     -5.81113552	     -2.23979042	      7.94149529	      0.13860524	     26.84175787	     -2.60635016	      0.00000000	     -0.11724235	      0.46999519	      0.52349503	     -0.21773078	      0.62509360	      0.55621347	     -0.19261747	      1.14274630	      0.55621347	     -0.13399629	      1.14274630	      0.45805815	     -0.10887125	      0.95841419	      0.42533971	     -0.06699228	      0.72802255	      0.39262127	     -0.83745042	      5.31667959	      2.91152232	      0.00000000	      0.00000000	      9.92428623	    -16.18254418	      2.49992113	    -12.81025817	    -23.58904808	     19.82640634	     49.60010349	     88.84303989	     14.23112019	     31.38548908	      9.90982457	     -6.47670270	    195.40570690	      3.43960273	     26.83578794	     -6.59973584	     -6.57989142
      2.33333333	      5.08305382	     -5.73922377	     88.87422716	      0.23092235	      0.79633553	      0.69492221	      5.21796599	      5.15439844	    -15.91410476	     13.47379105	      0.23516202	     32.80692060	     18.32717435	      0.00000000	      1.10763347	     -6.01209440	     -3.41608336	      8.37211544	      0.14612098	     27.39018334	     -0.52880620	      0.00000000	     -0.10874324	      0.47513301	      0.41529952	     -0.20194707	      0.63192690	      0.44125574	     -0.17865427	      1.15523840	      0.44125574	     -0.12428265	      1.15523840	      0.36338708	     -0.10097897	      0.96889124	      0.33743086	     -0.06213589	      0.73598103	      0.31147464	     -0.77674209	      5.37479964	      2.30977135	      0.00000000	      0.00000000	     10.02571884	    -16.04702924	      2.77978127	    -12.04345627	    -23.97230793	     21.33883876	     49.04673949	     88.80892749	     15.15321270	     31.35157278	      9.78891662	     -6.95104470	    193.05029052	      2.91523755	     28.34752535	     -4.87572688	     -8.25875946
